<svg id="visual" viewBox="0 0 1920 1080" width="1920" height="1080" xmlns="http://www.w3.org/2000/svg" xmlns:xlink="http://www.w3.org/1999/xlink" version="1.1"><rect x="0" y="0" width="1920" height="1080" fill="#0c0c0c"></rect><defs><linearGradient id="grad1_0" x1="43.8%" y1="0%" x2="100%" y2="100%"><stop offset="14.444444444444446%" stop-color="#2c272c" stop-opacity="1"></stop><stop offset="85.55555555555554%" stop-color="#2c272c" stop-opacity="1"></stop></linearGradient></defs><defs><linearGradient id="grad1_1" x1="43.8%" y1="0%" x2="100%" y2="100%"><stop offset="14.444444444444446%" stop-color="#2c272c" stop-opacity="1"></stop><stop offset="85.55555555555554%" stop-color="#282328" stop-opacity="1"></stop></linearGradient></defs><defs><linearGradient id="grad1_2" x1="43.8%" y1="0%" x2="100%" y2="100%"><stop offset="14.444444444444446%" stop-color="#232023" stop-opacity="1"></stop><stop offset="85.55555555555554%" stop-color="#282328" stop-opacity="1"></stop></linearGradient></defs><defs><linearGradient id="grad1_3" x1="43.8%" y1="0%" x2="100%" y2="100%"><stop offset="14.444444444444446%" stop-color="#232023" stop-opacity="1"></stop><stop offset="85.55555555555554%" stop-color="#1f1c1f" stop-opacity="1"></stop></linearGradient></defs><defs><linearGradient id="grad1_4" x1="43.8%" y1="0%" x2="100%" y2="100%"><stop offset="14.444444444444446%" stop-color="#1b191b" stop-opacity="1"></stop><stop offset="85.55555555555554%" stop-color="#1f1c1f" stop-opacity="1"></stop></linearGradient></defs><defs><linearGradient id="grad1_5" x1="43.8%" y1="0%" x2="100%" y2="100%"><stop offset="14.444444444444446%" stop-color="#1b191b" stop-opacity="1"></stop><stop offset="85.55555555555554%" stop-color="#171517" stop-opacity="1"></stop></linearGradient></defs><defs><linearGradient id="grad1_6" x1="43.8%" y1="0%" x2="100%" y2="100%"><stop offset="14.444444444444446%" stop-color="#121112" stop-opacity="1"></stop><stop offset="85.55555555555554%" stop-color="#171517" stop-opacity="1"></stop></linearGradient></defs><defs><linearGradient id="grad1_7" x1="43.8%" y1="0%" x2="100%" y2="100%"><stop offset="14.444444444444446%" stop-color="#121112" stop-opacity="1"></stop><stop offset="85.55555555555554%" stop-color="#0c0c0c" stop-opacity="1"></stop></linearGradient></defs><defs><linearGradient id="grad2_0" x1="0%" y1="0%" x2="56.3%" y2="100%"><stop offset="14.444444444444446%" stop-color="#2c272c" stop-opacity="1"></stop><stop offset="85.55555555555554%" stop-color="#2c272c" stop-opacity="1"></stop></linearGradient></defs><defs><linearGradient id="grad2_1" x1="0%" y1="0%" x2="56.3%" y2="100%"><stop offset="14.444444444444446%" stop-color="#282328" stop-opacity="1"></stop><stop offset="85.55555555555554%" stop-color="#2c272c" stop-opacity="1"></stop></linearGradient></defs><defs><linearGradient id="grad2_2" x1="0%" y1="0%" x2="56.3%" y2="100%"><stop offset="14.444444444444446%" stop-color="#282328" stop-opacity="1"></stop><stop offset="85.55555555555554%" stop-color="#232023" stop-opacity="1"></stop></linearGradient></defs><defs><linearGradient id="grad2_3" x1="0%" y1="0%" x2="56.3%" y2="100%"><stop offset="14.444444444444446%" stop-color="#1f1c1f" stop-opacity="1"></stop><stop offset="85.55555555555554%" stop-color="#232023" stop-opacity="1"></stop></linearGradient></defs><defs><linearGradient id="grad2_4" x1="0%" y1="0%" x2="56.3%" y2="100%"><stop offset="14.444444444444446%" stop-color="#1f1c1f" stop-opacity="1"></stop><stop offset="85.55555555555554%" stop-color="#1b191b" stop-opacity="1"></stop></linearGradient></defs><defs><linearGradient id="grad2_5" x1="0%" y1="0%" x2="56.3%" y2="100%"><stop offset="14.444444444444446%" stop-color="#171517" stop-opacity="1"></stop><stop offset="85.55555555555554%" stop-color="#1b191b" stop-opacity="1"></stop></linearGradient></defs><defs><linearGradient id="grad2_6" x1="0%" y1="0%" x2="56.3%" y2="100%"><stop offset="14.444444444444446%" stop-color="#171517" stop-opacity="1"></stop><stop offset="85.55555555555554%" stop-color="#121112" stop-opacity="1"></stop></linearGradient></defs><defs><linearGradient id="grad2_7" x1="0%" y1="0%" x2="56.3%" y2="100%"><stop offset="14.444444444444446%" stop-color="#0c0c0c" stop-opacity="1"></stop><stop offset="85.55555555555554%" stop-color="#121112" stop-opacity="1"></stop></linearGradient></defs><g transform="translate(1920, 0)"><path d="M0 648C-68 601.7 -136.1 555.5 -220.4 532.2C-304.8 508.8 -405.4 508.4 -458.2 458.2C-511 408 -515.9 308.1 -539.5 223.5C-563.2 138.8 -605.6 69.4 -648 0L0 0Z" fill="#0f0f0f"></path><path d="M0 567C-59.5 526.5 -119.1 486.1 -192.9 465.6C-266.7 445.2 -354.7 444.8 -400.9 400.9C-447.1 357 -451.4 269.6 -472.1 195.6C-492.8 121.5 -529.9 60.7 -567 0L0 0Z" fill="#141314"></path><path d="M0 486C-51 451.3 -102.1 416.6 -165.3 399.1C-228.6 381.6 -304.1 381.3 -343.7 343.7C-383.2 306 -386.9 231.1 -404.7 167.6C-422.4 104.1 -454.2 52.1 -486 0L0 0Z" fill="#191719"></path><path d="M0 405C-42.5 376.1 -85 347.2 -137.8 332.6C-190.5 318 -253.4 317.7 -286.4 286.4C-319.4 255 -322.4 192.6 -337.2 139.7C-352 86.8 -378.5 43.4 -405 0L0 0Z" fill="#1d1a1d"></path><path d="M0 324C-34 300.9 -68 277.7 -110.2 266.1C-152.4 254.4 -202.7 254.2 -229.1 229.1C-255.5 204 -257.9 154.1 -269.8 111.7C-281.6 69.4 -302.8 34.7 -324 0L0 0Z" fill="#211e21"></path><path d="M0 243C-25.5 225.7 -51 208.3 -82.7 199.6C-114.3 190.8 -152 190.6 -171.8 171.8C-191.6 153 -193.5 115.6 -202.3 83.8C-211.2 52.1 -227.1 26 -243 0L0 0Z" fill="#252225"></path><path d="M0 162C-17 150.4 -34 138.9 -55.1 133C-76.2 127.2 -101.4 127.1 -114.6 114.6C-127.7 102 -129 77 -134.9 55.9C-140.8 34.7 -151.4 17.4 -162 0L0 0Z" fill="#2a252a"></path><path d="M0 81C-8.5 75.2 -17 69.4 -27.6 66.5C-38.1 63.6 -50.7 63.5 -57.3 57.3C-63.9 51 -64.5 38.5 -67.4 27.9C-70.4 17.4 -75.7 8.7 -81 0L0 0Z" fill="#2c272c"></path></g><g transform="translate(0, 1080)"><path d="M0 -648C79.9 -612.9 159.7 -577.8 221.2 -534C282.7 -490.2 325.8 -437.7 393.2 -393.2C460.5 -348.6 552.2 -312.2 598.7 -248C645.2 -183.8 646.6 -91.9 648 0L0 0Z" fill="#0f0f0f"></path><path d="M0 -567C69.9 -536.3 139.7 -505.6 193.5 -467.3C247.3 -428.9 285.1 -383 344 -344C403 -305.1 483.1 -273.1 523.8 -217C564.5 -160.8 565.8 -80.4 567 0L0 0Z" fill="#141314"></path><path d="M0 -486C59.9 -459.7 119.8 -433.4 165.9 -400.5C212 -367.6 244.3 -328.2 294.9 -294.9C345.4 -261.5 414.1 -234.1 449 -186C483.9 -137.8 484.9 -68.9 486 0L0 0Z" fill="#191719"></path><path d="M0 -405C49.9 -383.1 99.8 -361.1 138.2 -333.8C176.7 -306.4 203.6 -273.5 245.7 -245.7C287.8 -217.9 345.1 -195.1 374.2 -155C403.2 -114.9 404.1 -57.4 405 0L0 0Z" fill="#1d1a1d"></path><path d="M0 -324C39.9 -306.5 79.9 -288.9 110.6 -267C141.3 -245.1 162.9 -218.8 196.6 -196.6C230.3 -174.3 276.1 -156.1 299.3 -124C322.6 -91.9 323.3 -45.9 324 0L0 0Z" fill="#211e21"></path><path d="M0 -243C29.9 -229.8 59.9 -216.7 82.9 -200.3C106 -183.8 122.2 -164.1 147.4 -147.4C172.7 -130.7 207.1 -117.1 224.5 -93C241.9 -68.9 242.5 -34.5 243 0L0 0Z" fill="#252225"></path><path d="M0 -162C20 -153.2 39.9 -144.5 55.3 -133.5C70.7 -122.5 81.4 -109.4 98.3 -98.3C115.1 -87.2 138 -78 149.7 -62C161.3 -45.9 161.6 -23 162 0L0 0Z" fill="#2a252a"></path><path d="M0 -81C10 -76.6 20 -72.2 27.6 -66.8C35.3 -61.3 40.7 -54.7 49.1 -49.1C57.6 -43.6 69 -39 74.8 -31C80.6 -23 80.8 -11.5 81 0L0 0Z" fill="#2c272c"></path></g></svg>