<svg id="visual" viewBox="0 0 1920 1080" width="1920" height="1080" xmlns="http://www.w3.org/2000/svg" xmlns:xlink="http://www.w3.org/1999/xlink" version="1.1">
<rect x="0" y="0" width="1920" height="1080" fill="#3d0b22"></rect>
<g fill="none" stroke="#921951" stroke-width="5">
<circle r="99" cx="1797" cy="134"></circle>
<circle r="24" cx="669" cy="472"></circle>
<circle r="28" cx="129" cy="347"></circle>
<circle r="59" cx="720" cy="767"></circle>
<circle r="60" cx="318" cy="201"></circle>
<circle r="81" cx="1394" cy="878"></circle>
<circle r="56" cx="1177" cy="813"></circle>
<circle r="41" cx="900" cy="168"></circle>
<circle r="85" cx="390" cy="899"></circle>
<circle r="56" cx="1483" cy="123"></circle>
<circle r="62" cx="333" cy="478"></circle>
<circle r="80" cx="803" cy="977"></circle>
<circle r="51" cx="1159" cy="525"></circle>
<circle r="38" cx="1705" cy="602"></circle>
<circle r="72" cx="138" cy="102"></circle>
</g>
<path d="M0 836L45.7 828.2C91.3 820.3 182.7 804.7 274.2 804.5C365.7 804.3 457.3 819.7 548.8 829.2C640.3 838.7 731.7 842.3 823 833.7C914.3 825 1005.7 804 1097 794.2C1188.3 784.3 1279.7 785.7 1371.2 787C1462.7 788.3 1554.3 789.7 1645.8 794C1737.3 798.3 1828.7 805.7 1874.3 809.3L1920 813L1920 1081L1874.3 1081C1828.7 1081 1737.3 1081 1645.8 1081C1554.3 1081 1462.7 1081 1371.2 1081C1279.7 1081 1188.3 1081 1097 1081C1005.7 1081 914.3 1081 823 1081C731.7 1081 640.3 1081 548.8 1081C457.3 1081 365.7 1081 274.2 1081C182.7 1081 91.3 1081 45.7 1081L0 1081Z" fill="#c41d6b"></path>
<path d="M0 867L45.7 859.7C91.3 852.3 182.7 837.7 274.2 829.8C365.7 822 457.3 821 548.8 828.8C640.3 836.7 731.7 853.3 823 855.5C914.3 857.7 1005.7 845.3 1097 840.7C1188.3 836 1279.7 839 1371.2 841.8C1462.7 844.7 1554.3 847.3 1645.8 848.7C1737.3 850 1828.7 850 1874.3 850L1920 850L1920 1081L1874.3 1081C1828.7 1081 1737.3 1081 1645.8 1081C1554.3 1081 1462.7 1081 1371.2 1081C1279.7 1081 1188.3 1081 1097 1081C1005.7 1081 914.3 1081 823 1081C731.7 1081 640.3 1081 548.8 1081C457.3 1081 365.7 1081 274.2 1081C182.7 1081 91.3 1081 45.7 1081L0 1081Z" fill="#b81a64"></path>
<path d="M0 867L45.7 873.5C91.3 880 182.7 893 274.2 893.8C365.7 894.7 457.3 883.3 548.8 879.3C640.3 875.3 731.7 878.7 823 883.8C914.3 889 1005.7 896 1097 889.8C1188.3 883.7 1279.7 864.3 1371.2 864.2C1462.7 864 1554.3 883 1645.8 887.3C1737.3 891.7 1828.7 881.3 1874.3 876.2L1920 871L1920 1081L1874.3 1081C1828.7 1081 1737.3 1081 1645.8 1081C1554.3 1081 1462.7 1081 1371.2 1081C1279.7 1081 1188.3 1081 1097 1081C1005.7 1081 914.3 1081 823 1081C731.7 1081 640.3 1081 548.8 1081C457.3 1081 365.7 1081 274.2 1081C182.7 1081 91.3 1081 45.7 1081L0 1081Z" fill="#ad165c"></path>
<path d="M0 870L45.7 876.7C91.3 883.3 182.7 896.7 274.2 897.8C365.7 899 457.3 888 548.8 892C640.3 896 731.7 915 823 915.8C914.3 916.7 1005.7 899.3 1097 890.8C1188.3 882.3 1279.7 882.7 1371.2 881.2C1462.7 879.7 1554.3 876.3 1645.8 881.3C1737.3 886.3 1828.7 899.7 1874.3 906.3L1920 913L1920 1081L1874.3 1081C1828.7 1081 1737.3 1081 1645.8 1081C1554.3 1081 1462.7 1081 1371.2 1081C1279.7 1081 1188.3 1081 1097 1081C1005.7 1081 914.3 1081 823 1081C731.7 1081 640.3 1081 548.8 1081C457.3 1081 365.7 1081 274.2 1081C182.7 1081 91.3 1081 45.7 1081L0 1081Z" fill="#a11355"></path>
<path d="M0 955L45.7 954.8C91.3 954.7 182.7 954.3 274.2 949.8C365.7 945.3 457.3 936.7 548.8 937.5C640.3 938.3 731.7 948.7 823 949.5C914.3 950.3 1005.7 941.7 1097 941.7C1188.3 941.7 1279.7 950.3 1371.2 951.2C1462.7 952 1554.3 945 1645.8 942C1737.3 939 1828.7 940 1874.3 940.5L1920 941L1920 1081L1874.3 1081C1828.7 1081 1737.3 1081 1645.8 1081C1554.3 1081 1462.7 1081 1371.2 1081C1279.7 1081 1188.3 1081 1097 1081C1005.7 1081 914.3 1081 823 1081C731.7 1081 640.3 1081 548.8 1081C457.3 1081 365.7 1081 274.2 1081C182.7 1081 91.3 1081 45.7 1081L0 1081Z" fill="#96104e"></path>
<path d="M0 960L45.7 959.7C91.3 959.3 182.7 958.7 274.2 960.3C365.7 962 457.3 966 548.8 963.5C640.3 961 731.7 952 823 948.7C914.3 945.3 1005.7 947.7 1097 949C1188.3 950.3 1279.7 950.7 1371.2 951.7C1462.7 952.7 1554.3 954.3 1645.8 959C1737.3 963.7 1828.7 971.3 1874.3 975.2L1920 979L1920 1081L1874.3 1081C1828.7 1081 1737.3 1081 1645.8 1081C1554.3 1081 1462.7 1081 1371.2 1081C1279.7 1081 1188.3 1081 1097 1081C1005.7 1081 914.3 1081 823 1081C731.7 1081 640.3 1081 548.8 1081C457.3 1081 365.7 1081 274.2 1081C182.7 1081 91.3 1081 45.7 1081L0 1081Z" fill="#8b0d47"></path>
<path d="M0 979L45.7 977.3C91.3 975.7 182.7 972.3 274.2 976C365.7 979.7 457.3 990.3 548.8 995.7C640.3 1001 731.7 1001 823 999C914.3 997 1005.7 993 1097 993.2C1188.3 993.3 1279.7 997.7 1371.2 999.8C1462.7 1002 1554.3 1002 1645.8 995.2C1737.3 988.3 1828.7 974.7 1874.3 967.8L1920 961L1920 1081L1874.3 1081C1828.7 1081 1737.3 1081 1645.8 1081C1554.3 1081 1462.7 1081 1371.2 1081C1279.7 1081 1188.3 1081 1097 1081C1005.7 1081 914.3 1081 823 1081C731.7 1081 640.3 1081 548.8 1081C457.3 1081 365.7 1081 274.2 1081C182.7 1081 91.3 1081 45.7 1081L0 1081Z" fill="#800940"></path>
<path d="M0 1020L45.7 1018.8C91.3 1017.7 182.7 1015.3 274.2 1011.8C365.7 1008.3 457.3 1003.7 548.8 1006.8C640.3 1010 731.7 1021 823 1023.8C914.3 1026.7 1005.7 1021.3 1097 1018.3C1188.3 1015.3 1279.7 1014.7 1371.2 1014.2C1462.7 1013.7 1554.3 1013.3 1645.8 1013C1737.3 1012.7 1828.7 1012.3 1874.3 1012.2L1920 1012L1920 1081L1874.3 1081C1828.7 1081 1737.3 1081 1645.8 1081C1554.3 1081 1462.7 1081 1371.2 1081C1279.7 1081 1188.3 1081 1097 1081C1005.7 1081 914.3 1081 823 1081C731.7 1081 640.3 1081 548.8 1081C457.3 1081 365.7 1081 274.2 1081C182.7 1081 91.3 1081 45.7 1081L0 1081Z" fill="#750639"></path>
<path d="M0 1068L45.7 1060.7C91.3 1053.3 182.7 1038.7 274.2 1034.7C365.7 1030.7 457.3 1037.3 548.8 1037.8C640.3 1038.3 731.7 1032.7 823 1032.2C914.3 1031.7 1005.7 1036.3 1097 1039.3C1188.3 1042.3 1279.7 1043.7 1371.2 1042.5C1462.7 1041.3 1554.3 1037.7 1645.8 1036.5C1737.3 1035.3 1828.7 1036.7 1874.3 1037.3L1920 1038L1920 1081L1874.3 1081C1828.7 1081 1737.3 1081 1645.8 1081C1554.3 1081 1462.7 1081 1371.2 1081C1279.7 1081 1188.3 1081 1097 1081C1005.7 1081 914.3 1081 823 1081C731.7 1081 640.3 1081 548.8 1081C457.3 1081 365.7 1081 274.2 1081C182.7 1081 91.3 1081 45.7 1081L0 1081Z" fill="#6a0433"></path>
</svg>