<svg id="visual" viewBox="0 0 1920 1080" width="1920" height="1080" xmlns="http://www.w3.org/2000/svg" xmlns:xlink="http://www.w3.org/1999/xlink" version="1.1">
<rect x="0" y="0" width="1920" height="1080" fill="#0e0f28"></rect>
<g fill="none" stroke="#3f41b0" stroke-width="5">
<circle r="99" cx="1797" cy="134"></circle>
<circle r="24" cx="669" cy="472"></circle>
<circle r="28" cx="129" cy="347"></circle>
<circle r="59" cx="720" cy="767"></circle>
<circle r="60" cx="318" cy="201"></circle>
<circle r="81" cx="1394" cy="878"></circle>
<circle r="56" cx="1177" cy="813"></circle>
<circle r="41" cx="900" cy="168"></circle>
<circle r="85" cx="390" cy="899"></circle>
<circle r="56" cx="1483" cy="123"></circle>
<circle r="62" cx="333" cy="478"></circle>
<circle r="80" cx="803" cy="977"></circle>
<circle r="51" cx="1159" cy="525"></circle>
<circle r="38" cx="1705" cy="602"></circle>
<circle r="72" cx="138" cy="102"></circle>
</g>
<path d="M0 836L45.7 822.7C91.3 809.3 182.7 782.7 274.2 783.5C365.7 784.3 457.3 812.7 548.8 811.5C640.3 810.3 731.7 779.7 823 765.8C914.3 752 1005.7 755 1097 771.5C1188.3 788 1279.7 818 1371.2 820.8C1462.7 823.7 1554.3 799.3 1645.8 787.7C1737.3 776 1828.7 777 1874.3 777.5L1920 778L1920 1081L1874.3 1081C1828.7 1081 1737.3 1081 1645.8 1081C1554.3 1081 1462.7 1081 1371.2 1081C1279.7 1081 1188.3 1081 1097 1081C1005.7 1081 914.3 1081 823 1081C731.7 1081 640.3 1081 548.8 1081C457.3 1081 365.7 1081 274.2 1081C182.7 1081 91.3 1081 45.7 1081L0 1081Z" fill="#898bda"></path>
<path d="M0 812L45.7 820.8C91.3 829.7 182.7 847.3 274.2 840.5C365.7 833.7 457.3 802.3 548.8 799.5C640.3 796.7 731.7 822.3 823 840.2C914.3 858 1005.7 868 1097 862.5C1188.3 857 1279.7 836 1371.2 824.8C1462.7 813.7 1554.3 812.3 1645.8 805.7C1737.3 799 1828.7 787 1874.3 781L1920 775L1920 1081L1874.3 1081C1828.7 1081 1737.3 1081 1645.8 1081C1554.3 1081 1462.7 1081 1371.2 1081C1279.7 1081 1188.3 1081 1097 1081C1005.7 1081 914.3 1081 823 1081C731.7 1081 640.3 1081 548.8 1081C457.3 1081 365.7 1081 274.2 1081C182.7 1081 91.3 1081 45.7 1081L0 1081Z" fill="#8082d5"></path>
<path d="M0 861L45.7 866.3C91.3 871.7 182.7 882.3 274.2 885.5C365.7 888.7 457.3 884.3 548.8 870.5C640.3 856.7 731.7 833.3 823 832C914.3 830.7 1005.7 851.3 1097 853.7C1188.3 856 1279.7 840 1371.2 837.5C1462.7 835 1554.3 846 1645.8 859C1737.3 872 1828.7 887 1874.3 894.5L1920 902L1920 1081L1874.3 1081C1828.7 1081 1737.3 1081 1645.8 1081C1554.3 1081 1462.7 1081 1371.2 1081C1279.7 1081 1188.3 1081 1097 1081C1005.7 1081 914.3 1081 823 1081C731.7 1081 640.3 1081 548.8 1081C457.3 1081 365.7 1081 274.2 1081C182.7 1081 91.3 1081 45.7 1081L0 1081Z" fill="#7778d0"></path>
<path d="M0 856L45.7 859.3C91.3 862.7 182.7 869.3 274.2 871C365.7 872.7 457.3 869.3 548.8 865.2C640.3 861 731.7 856 823 862.2C914.3 868.3 1005.7 885.7 1097 895.7C1188.3 905.7 1279.7 908.3 1371.2 912.3C1462.7 916.3 1554.3 921.7 1645.8 910.7C1737.3 899.7 1828.7 872.3 1874.3 858.7L1920 845L1920 1081L1874.3 1081C1828.7 1081 1737.3 1081 1645.8 1081C1554.3 1081 1462.7 1081 1371.2 1081C1279.7 1081 1188.3 1081 1097 1081C1005.7 1081 914.3 1081 823 1081C731.7 1081 640.3 1081 548.8 1081C457.3 1081 365.7 1081 274.2 1081C182.7 1081 91.3 1081 45.7 1081L0 1081Z" fill="#6e6fcb"></path>
<path d="M0 888L45.7 895.7C91.3 903.3 182.7 918.7 274.2 925C365.7 931.3 457.3 928.7 548.8 931.3C640.3 934 731.7 942 823 934C914.3 926 1005.7 902 1097 892C1188.3 882 1279.7 886 1371.2 888C1462.7 890 1554.3 890 1645.8 897.3C1737.3 904.7 1828.7 919.3 1874.3 926.7L1920 934L1920 1081L1874.3 1081C1828.7 1081 1737.3 1081 1645.8 1081C1554.3 1081 1462.7 1081 1371.2 1081C1279.7 1081 1188.3 1081 1097 1081C1005.7 1081 914.3 1081 823 1081C731.7 1081 640.3 1081 548.8 1081C457.3 1081 365.7 1081 274.2 1081C182.7 1081 91.3 1081 45.7 1081L0 1081Z" fill="#6566c6"></path>
<path d="M0 963L45.7 961.5C91.3 960 182.7 957 274.2 958.7C365.7 960.3 457.3 966.7 548.8 962.5C640.3 958.3 731.7 943.7 823 938.3C914.3 933 1005.7 937 1097 941.8C1188.3 946.7 1279.7 952.3 1371.2 957.5C1462.7 962.7 1554.3 967.3 1645.8 964.7C1737.3 962 1828.7 952 1874.3 947L1920 942L1920 1081L1874.3 1081C1828.7 1081 1737.3 1081 1645.8 1081C1554.3 1081 1462.7 1081 1371.2 1081C1279.7 1081 1188.3 1081 1097 1081C1005.7 1081 914.3 1081 823 1081C731.7 1081 640.3 1081 548.8 1081C457.3 1081 365.7 1081 274.2 1081C182.7 1081 91.3 1081 45.7 1081L0 1081Z" fill="#5c5dc1"></path>
<path d="M0 976L45.7 975.7C91.3 975.3 182.7 974.7 274.2 976C365.7 977.3 457.3 980.7 548.8 977.3C640.3 974 731.7 964 823 959C914.3 954 1005.7 954 1097 956.5C1188.3 959 1279.7 964 1371.2 968.7C1462.7 973.3 1554.3 977.7 1645.8 983.2C1737.3 988.7 1828.7 995.3 1874.3 998.7L1920 1002L1920 1081L1874.3 1081C1828.7 1081 1737.3 1081 1645.8 1081C1554.3 1081 1462.7 1081 1371.2 1081C1279.7 1081 1188.3 1081 1097 1081C1005.7 1081 914.3 1081 823 1081C731.7 1081 640.3 1081 548.8 1081C457.3 1081 365.7 1081 274.2 1081C182.7 1081 91.3 1081 45.7 1081L0 1081Z" fill="#5353bb"></path>
<path d="M0 1012L45.7 1013.8C91.3 1015.7 182.7 1019.3 274.2 1020.3C365.7 1021.3 457.3 1019.7 548.8 1016C640.3 1012.3 731.7 1006.7 823 1003.5C914.3 1000.3 1005.7 999.7 1097 1001.2C1188.3 1002.7 1279.7 1006.3 1371.2 1005.5C1462.7 1004.7 1554.3 999.3 1645.8 1000.5C1737.3 1001.7 1828.7 1009.3 1874.3 1013.2L1920 1017L1920 1081L1874.3 1081C1828.7 1081 1737.3 1081 1645.8 1081C1554.3 1081 1462.7 1081 1371.2 1081C1279.7 1081 1188.3 1081 1097 1081C1005.7 1081 914.3 1081 823 1081C731.7 1081 640.3 1081 548.8 1081C457.3 1081 365.7 1081 274.2 1081C182.7 1081 91.3 1081 45.7 1081L0 1081Z" fill="#494ab6"></path>
<path d="M0 1027L45.7 1030.5C91.3 1034 182.7 1041 274.2 1040.8C365.7 1040.7 457.3 1033.3 548.8 1031.2C640.3 1029 731.7 1032 823 1033.7C914.3 1035.3 1005.7 1035.7 1097 1034.2C1188.3 1032.7 1279.7 1029.3 1371.2 1029.7C1462.7 1030 1554.3 1034 1645.8 1036.3C1737.3 1038.7 1828.7 1039.3 1874.3 1039.7L1920 1040L1920 1081L1874.3 1081C1828.7 1081 1737.3 1081 1645.8 1081C1554.3 1081 1462.7 1081 1371.2 1081C1279.7 1081 1188.3 1081 1097 1081C1005.7 1081 914.3 1081 823 1081C731.7 1081 640.3 1081 548.8 1081C457.3 1081 365.7 1081 274.2 1081C182.7 1081 91.3 1081 45.7 1081L0 1081Z" fill="#3f41b0"></path>
</svg>