<svg id="visual" viewBox="0 0 1920 1080" width="1920" height="1080" xmlns="http://www.w3.org/2000/svg" xmlns:xlink="http://www.w3.org/1999/xlink" version="1.1"><rect x="0" y="0" width="1920" height="1080" fill="#001220"></rect><defs><linearGradient id="grad1_0" x1="43.8%" y1="0%" x2="100%" y2="100%"><stop offset="14.444444444444446%" stop-color="#fbae3c" stop-opacity="1"></stop><stop offset="85.55555555555554%" stop-color="#fbae3c" stop-opacity="1"></stop></linearGradient></defs><defs><linearGradient id="grad1_1" x1="43.8%" y1="0%" x2="100%" y2="100%"><stop offset="14.444444444444446%" stop-color="#fbae3c" stop-opacity="1"></stop><stop offset="85.55555555555554%" stop-color="#f48350" stop-opacity="1"></stop></linearGradient></defs><defs><linearGradient id="grad1_2" x1="43.8%" y1="0%" x2="100%" y2="100%"><stop offset="14.444444444444446%" stop-color="#d96162" stop-opacity="1"></stop><stop offset="85.55555555555554%" stop-color="#f48350" stop-opacity="1"></stop></linearGradient></defs><defs><linearGradient id="grad1_3" x1="43.8%" y1="0%" x2="100%" y2="100%"><stop offset="14.444444444444446%" stop-color="#d96162" stop-opacity="1"></stop><stop offset="85.55555555555554%" stop-color="#af4b6d" stop-opacity="1"></stop></linearGradient></defs><defs><linearGradient id="grad1_4" x1="43.8%" y1="0%" x2="100%" y2="100%"><stop offset="14.444444444444446%" stop-color="#7c3e6b" stop-opacity="1"></stop><stop offset="85.55555555555554%" stop-color="#af4b6d" stop-opacity="1"></stop></linearGradient></defs><defs><linearGradient id="grad1_5" x1="43.8%" y1="0%" x2="100%" y2="100%"><stop offset="14.444444444444446%" stop-color="#7c3e6b" stop-opacity="1"></stop><stop offset="85.55555555555554%" stop-color="#49335c" stop-opacity="1"></stop></linearGradient></defs><defs><linearGradient id="grad1_6" x1="43.8%" y1="0%" x2="100%" y2="100%"><stop offset="14.444444444444446%" stop-color="#1d2540" stop-opacity="1"></stop><stop offset="85.55555555555554%" stop-color="#49335c" stop-opacity="1"></stop></linearGradient></defs><defs><linearGradient id="grad1_7" x1="43.8%" y1="0%" x2="100%" y2="100%"><stop offset="14.444444444444446%" stop-color="#1d2540" stop-opacity="1"></stop><stop offset="85.55555555555554%" stop-color="#001220" stop-opacity="1"></stop></linearGradient></defs><defs><linearGradient id="grad2_0" x1="0%" y1="0%" x2="56.3%" y2="100%"><stop offset="14.444444444444446%" stop-color="#fbae3c" stop-opacity="1"></stop><stop offset="85.55555555555554%" stop-color="#fbae3c" stop-opacity="1"></stop></linearGradient></defs><defs><linearGradient id="grad2_1" x1="0%" y1="0%" x2="56.3%" y2="100%"><stop offset="14.444444444444446%" stop-color="#f48350" stop-opacity="1"></stop><stop offset="85.55555555555554%" stop-color="#fbae3c" stop-opacity="1"></stop></linearGradient></defs><defs><linearGradient id="grad2_2" x1="0%" y1="0%" x2="56.3%" y2="100%"><stop offset="14.444444444444446%" stop-color="#f48350" stop-opacity="1"></stop><stop offset="85.55555555555554%" stop-color="#d96162" stop-opacity="1"></stop></linearGradient></defs><defs><linearGradient id="grad2_3" x1="0%" y1="0%" x2="56.3%" y2="100%"><stop offset="14.444444444444446%" stop-color="#af4b6d" stop-opacity="1"></stop><stop offset="85.55555555555554%" stop-color="#d96162" stop-opacity="1"></stop></linearGradient></defs><defs><linearGradient id="grad2_4" x1="0%" y1="0%" x2="56.3%" y2="100%"><stop offset="14.444444444444446%" stop-color="#af4b6d" stop-opacity="1"></stop><stop offset="85.55555555555554%" stop-color="#7c3e6b" stop-opacity="1"></stop></linearGradient></defs><defs><linearGradient id="grad2_5" x1="0%" y1="0%" x2="56.3%" y2="100%"><stop offset="14.444444444444446%" stop-color="#49335c" stop-opacity="1"></stop><stop offset="85.55555555555554%" stop-color="#7c3e6b" stop-opacity="1"></stop></linearGradient></defs><defs><linearGradient id="grad2_6" x1="0%" y1="0%" x2="56.3%" y2="100%"><stop offset="14.444444444444446%" stop-color="#49335c" stop-opacity="1"></stop><stop offset="85.55555555555554%" stop-color="#1d2540" stop-opacity="1"></stop></linearGradient></defs><defs><linearGradient id="grad2_7" x1="0%" y1="0%" x2="56.3%" y2="100%"><stop offset="14.444444444444446%" stop-color="#001220" stop-opacity="1"></stop><stop offset="85.55555555555554%" stop-color="#1d2540" stop-opacity="1"></stop></linearGradient></defs><g transform="translate(1920, 0)"><path d="M0 972C-132 942 -264 912.1 -345.6 834.3C-427.1 756.5 -458.2 630.9 -555.8 555.8C-653.4 480.7 -817.6 456.2 -898 372C-978.5 287.8 -975.2 143.9 -972 0L0 0Z" fill="#0c1c30"></path><path d="M0 850.5C-115.5 824.3 -231 798 -302.4 730C-373.7 661.9 -400.9 552 -486.3 486.3C-571.7 420.6 -715.4 399.2 -785.8 325.5C-856.2 251.8 -853.3 125.9 -850.5 0L0 0Z" fill="#312c4f"></path><path d="M0 729C-99 706.5 -198 684 -259.2 625.7C-320.3 567.4 -343.6 473.1 -416.8 416.8C-490 360.5 -613.2 342.1 -673.5 279C-733.9 215.8 -731.4 107.9 -729 0L0 0Z" fill="#623965"></path><path d="M0 607.5C-82.5 588.8 -165 570 -216 521.4C-266.9 472.8 -286.4 394.3 -347.4 347.4C-408.4 300.4 -511 285.1 -561.3 232.5C-611.5 179.9 -609.5 89.9 -607.5 0L0 0Z" fill="#96446e"></path><path d="M0 486C-66 471 -132 456 -172.8 417.1C-213.6 378.2 -229.1 315.4 -277.9 277.9C-326.7 240.4 -408.8 228.1 -449 186C-489.2 143.9 -487.6 71.9 -486 0L0 0Z" fill="#c55469"></path><path d="M0 364.5C-49.5 353.3 -99 342 -129.6 312.8C-160.2 283.7 -171.8 236.6 -208.4 208.4C-245 180.3 -306.6 171.1 -336.8 139.5C-366.9 107.9 -365.7 54 -364.5 0L0 0Z" fill="#e9705a"></path><path d="M0 243C-33 235.5 -66 228 -86.4 208.6C-106.8 189.1 -114.5 157.7 -138.9 138.9C-163.3 120.2 -204.4 114 -224.5 93C-244.6 71.9 -243.8 36 -243 0L0 0Z" fill="#fa9845"></path><path d="M0 121.5C-16.5 117.8 -33 114 -43.2 104.3C-53.4 94.6 -57.3 78.9 -69.5 69.5C-81.7 60.1 -102.2 57 -112.3 46.5C-122.3 36 -121.9 18 -121.5 0L0 0Z" fill="#fbae3c"></path></g><g transform="translate(0, 1080)"><path d="M0 -972C144 -974.2 288 -976.4 372 -898C455.9 -819.6 479.8 -660.5 568.5 -568.5C657.2 -476.5 810.7 -451.7 888.8 -368.1C966.8 -284.6 969.4 -142.3 972 0L0 0Z" fill="#0c1c30"></path><path d="M0 -850.5C126 -852.4 252 -854.4 325.5 -785.8C398.9 -717.1 419.8 -577.9 497.4 -497.4C575.1 -417 709.4 -395.2 777.7 -322.1C846 -249 848.2 -124.5 850.5 0L0 0Z" fill="#312c4f"></path><path d="M0 -729C108 -730.7 216 -732.3 279 -673.5C341.9 -614.7 359.9 -495.4 426.4 -426.4C492.9 -357.4 608 -338.8 666.6 -276.1C725.1 -213.4 727.1 -106.7 729 0L0 0Z" fill="#623965"></path><path d="M0 -607.5C90 -608.9 180 -610.3 232.5 -561.3C284.9 -512.2 299.9 -412.8 355.3 -355.3C410.8 -297.8 506.7 -282.3 555.5 -230.1C604.3 -177.9 605.9 -88.9 607.5 0L0 0Z" fill="#96446e"></path><path d="M0 -486C72 -487.1 144 -488.2 186 -449C228 -409.8 239.9 -330.2 284.3 -284.3C328.6 -238.3 405.4 -225.9 444.4 -184.1C483.4 -142.3 484.7 -71.1 486 0L0 0Z" fill="#c55469"></path><path d="M0 -364.5C54 -365.3 108 -366.2 139.5 -336.8C171 -307.3 179.9 -247.7 213.2 -213.2C246.5 -178.7 304 -169.4 333.3 -138.1C362.6 -106.7 363.5 -53.4 364.5 0L0 0Z" fill="#e9705a"></path><path d="M0 -243C36 -243.6 72 -244.1 93 -224.5C114 -204.9 120 -165.1 142.1 -142.1C164.3 -119.1 202.7 -112.9 222.2 -92C241.7 -71.1 242.4 -35.6 243 0L0 0Z" fill="#fa9845"></path><path d="M0 -121.5C18 -121.8 36 -122.1 46.5 -112.3C57 -102.4 60 -82.6 71.1 -71.1C82.2 -59.6 101.3 -56.5 111.1 -46C120.9 -35.6 121.2 -17.8 121.5 0L0 0Z" fill="#fbae3c"></path></g></svg>